{"title":"The Conjuring - HDTC - 2016 - Dual Audio (English - Hindi) - x26","uid":14915440,"size":733108482,"categoryP":"video","categoryS":"movies","magnet":"?xt=urn:btih:8847fd899c90f627fc5b77882daf7a323306498f&amp;dn=The+Conjuring+-+HDTC+-+2016+-+Dual+Audio+%28English+-+Hindi%29+-+x26&amp;tr=udp%3A%2F%2Ftracker.leechers-paradise.org%3A6969&amp;tr=udp%3A%2F%2Fzer0day.ch%3A1337&amp;tr=udp%3A%2F%2Fopen.demonii.com%3A1337&amp;tr=udp%3A%2F%2Ftracker.coppersurfer.tk%3A6969&amp;tr=udp%3A%2F%2Fexodus.desync.com%3A6969","seeders":47,"leechers":8,"uploader":"makintos13","files":1,"time":1465887010,"description":"screens:\r\n \nhttps://imgmak.com/Tob\r\n \nhttps://imgmak.com/Tox\r\n \nhttps://imgmak.com/Toz\r\n \nhttps://imgmak.com/To7\r\n \nhttps://imgmak.com/Tok\r\n \nhttps://imgmak.com/Tom\r\n \nhttps://imgmak.com/Tou\r\n\r\n \nhttps://imgmak.com/To5\r\n \nhttps://imgmak.com/To1\r\n \nhttps://imgmak.com/ToU\r\n\r\n\r\n\r\nFormat : Matroska\r\nFormat version : Version 4 / Version 2\r\nFile size : 699 MiB\r\nDuration : 2h 7mn\r\nOverall bit rate : 769 Kbps\r\nMovie name : This Movie Is Downloaded From - KatmovieHD.com\r\nEncoded date : UTC 2016-06-14 03:04:27\r\nWriting application : mkvmerge v9.1.0 ('Little Earthquakes') 64bit\r\nWriting library : libebml v1.3.3 + libmatroska v1.4.4 / Lavf55.12.0\r\n\r\nVideo\r\nID : 3\r\nFormat : AVC\r\nFormat/Info : Advanced Video Codec\r\nFormat profile :   \r\nFormat settings, CABAC : Yes\r\nFormat settings, ReFrames : 4 frames\r\nCodec ID : V_MPEG4/ISO/AVC\r\nDuration : 2h 6mn\r\nBit rate : 638 Kbps\r\nWidth : 720 pixels\r\nHeight : 320 pixels\r\nDisplay aspect ratio : 2.25:1\r\nFrame rate mode : Constant\r\nFrame rate : 29.970 (30000/1001) fps\r\nColor space : YUV\r\nChroma subsampling : 4:2:0\r\nBit depth : 8 bits\r\nScan type : Progressive\r\nBits/(Pixel*Frame) : 0.092\r\nStream size : 580 MiB (83%)\r\nDefault : Yes\r\nForced : No\r\n\r\nAudio #1\r\nID : 1\r\nFormat : AAC\r\nFormat/Info : Advanced Audio Codec\r\nFormat profile : LC\r\nCodec ID : A_AAC\r\nDuration : 2h 7mn\r\nBit rate : 64.1 Kbps\r\nChannel(s) : 2 channels\r\nChannel positions : Front: L R\r\nSampling rate : 48.0 KHz\r\nFrame rate : 46.875 fps (1024 spf)\r\nCompression mode : Lossy\r\nDelay relative to video : 46ms\r\nStream size : 58.2 MiB (8%)\r\nTitle : Stereo\r\nLanguage : Hindi\r\nDefault : Yes\r\nForced : No\r\n\r\nAudio #2\r\nID : 2\r\nFormat : AAC\r\nFormat/Info : Advanced Audio Codec\r\nFormat profile : LC\r\nCodec ID : A_AAC\r\nDuration : 2h 6mn\r\nBit rate : 64.4 Kbps\r\nChannel(s) : 2 channels\r\nChannel positions : Front: L R\r\nSampling rate : 48.0 KHz\r\nFrame rate : 46.875 fps (1024 spf)\r\nCompression mode : Lossy\r\nDelay relative to video : 46ms\r\nStream size : 58.5 MiB (8%)\r\nTitle : Stereo\r\nDefault : No\r\nForced : No","torrent":{"xt":"urn:btih:8847fd899c90f627fc5b77882daf7a323306498f","amp;dn":"The+Conjuring+-+HDTC+-+2016+-+Dual+Audio+%28English+-+Hindi%29+-+x26","amp;tr":["udp%3A%2F%2Ftracker.leechers-paradise.org%3A6969","udp%3A%2F%2Fzer0day.ch%3A1337","udp%3A%2F%2Fopen.demonii.com%3A1337","udp%3A%2F%2Ftracker.coppersurfer.tk%3A6969","udp%3A%2F%2Fexodus.desync.com%3A6969"],"infoHash":"8847fd899c90f627fc5b77882daf7a323306498f","infoHashBuffer":{"type":"Buffer","data":[136,71,253,137,156,144,246,39,252,91,119,136,45,175,122,50,51,6,73,143]},"announce":[],"urlList":[]}}